<svg xmlns="http://www.w3.org/2000/svg" viewBox="0 0 220 480" width="220" height="480">
  <rect width="220" height="480" fill="#f5f5f5" rx="8"/>
  <ellipse cx="110" cy="46" rx="28" ry="32" fill="#d1d5db"/>
  <rect x="100" y="76" width="20" height="20" rx="4" fill="#d1d5db"/>
  <path d="M50 96 Q75 86 110 92 Q145 86 170 96 L164 170 L56 170 Z" fill="#e5e7eb"/>
  <rect x="60" y="96" width="100" height="74" rx="6" fill="#e5e7eb"/>
  <rect x="104" y="96" width="12" height="74" rx="4" fill="#d1d5db"/>
  <rect x="30" y="100" width="26" height="80" rx="13" fill="#e5e7eb"/>
  <rect x="164" y="100" width="26" height="80" rx="13" fill="#e5e7eb"/>
  <rect x="28" y="182" width="24" height="68" rx="12" fill="#d1d5db"/>
  <rect x="168" y="182" width="24" height="68" rx="12" fill="#d1d5db"/>
  <ellipse cx="40" cy="260" rx="13" ry="16" fill="#e5e7eb"/>
  <ellipse cx="180" cy="260" rx="13" ry="16" fill="#e5e7eb"/>
  <ellipse cx="110" cy="194" rx="46" ry="18" fill="#d9dce1"/>
  <rect x="65" y="208" width="34" height="96" rx="17" fill="#e5e7eb"/>
  <rect x="121" y="208" width="34" height="96" rx="17" fill="#e5e7eb"/>
  <rect x="66" y="306" width="32" height="88" rx="16" fill="#d1d5db"/>
  <rect x="122" y="306" width="32" height="88" rx="16" fill="#d1d5db"/>
  <ellipse cx="82" cy="404" rx="18" ry="12" fill="#e5e7eb"/>
  <ellipse cx="138" cy="404" rx="18" ry="12" fill="#e5e7eb"/>
  <text x="110" y="460" text-anchor="middle" fill="#9ca3af" font-family="system-ui,sans-serif" font-size="10" font-weight="500">Sube tu imagen en Admin → Imágenes</text>
</svg>
